<svg width="193" height="29" viewBox="0 0 193 29" fill="none" xmlns="http://www.w3.org/2000/svg">
<path d="M12.2335 17.236V14.572H16.1455C16.6575 14.572 17.1215 14.468 17.5375 14.26C17.9535 14.052 18.2815 13.756 18.5215 13.372C18.7615 12.972 18.8815 12.492 18.8815 11.932C18.8815 11.388 18.7615 10.916 18.5215 10.516C18.2815 10.116 17.9535 9.812 17.5375 9.604C17.1215 9.396 16.6575 9.292 16.1455 9.292H12.2335V6.628H16.4815C17.5535 6.628 18.5135 6.844 19.3615 7.276C20.2255 7.708 20.9055 8.324 21.4015 9.124C21.8975 9.908 22.1455 10.844 22.1455 11.932C22.1455 13.02 21.8975 13.964 21.4015 14.764C20.9055 15.548 20.2255 16.156 19.3615 16.588C18.5135 17.02 17.5535 17.236 16.4815 17.236H12.2335ZM9.83347 23.5V6.628H13.0975V23.5H9.83347Z" fill="white"/>
<path d="M76.3428 16.444V13.9H80.2548C81.0548 13.9 81.6708 13.7 82.1028 13.3C82.5508 12.884 82.7748 12.316 82.7748 11.596C82.7748 10.94 82.5508 10.396 82.1028 9.964C81.6708 9.516 81.0548 9.292 80.2548 9.292H76.3428V6.628H80.5428C81.6308 6.628 82.5828 6.844 83.3988 7.276C84.2308 7.692 84.8708 8.268 85.3188 9.004C85.7828 9.74 86.0148 10.588 86.0148 11.548C86.0148 12.54 85.7828 13.404 85.3188 14.14C84.8708 14.86 84.2308 15.428 83.3988 15.844C82.5668 16.244 81.5988 16.444 80.4948 16.444H76.3428ZM73.9428 23.5V6.628H77.2068V23.5H73.9428ZM83.1588 23.5L77.5908 16.204L80.5908 15.268L87.1188 23.5H83.1588ZM92.4392 23.5V6.988H95.7272V23.5H92.4392ZM87.0632 9.532V6.628H101.103V9.532H87.0632ZM103.357 23.5V6.628H106.621V23.5H103.357ZM120.283 23.5L112.963 14.692L120.091 6.628H124.171L116.227 15.388L116.251 13.876L124.435 23.5H120.283ZM110.083 23.5V6.628H113.347V23.5H110.083ZM124.445 23.5L131.237 6.628H133.901L140.669 23.5H137.189L131.957 9.652H133.157L127.853 23.5H124.445ZM128.045 20.356V17.62H137.117V20.356H128.045ZM145.062 16.444V13.9H148.974C149.774 13.9 150.39 13.7 150.822 13.3C151.27 12.884 151.494 12.316 151.494 11.596C151.494 10.94 151.27 10.396 150.822 9.964C150.39 9.516 149.774 9.292 148.974 9.292H145.062V6.628H149.262C150.35 6.628 151.302 6.844 152.118 7.276C152.95 7.692 153.59 8.268 154.038 9.004C154.502 9.74 154.734 10.588 154.734 11.548C154.734 12.54 154.502 13.404 154.038 14.14C153.59 14.86 152.95 15.428 152.118 15.844C151.286 16.244 150.318 16.444 149.214 16.444H145.062ZM142.662 23.5V6.628H145.926V23.5H142.662ZM151.878 23.5L146.31 16.204L149.31 15.268L155.838 23.5H151.878ZM161.158 23.5V6.988H164.446V23.5H161.158ZM155.782 9.532V6.628H169.822V9.532H155.782ZM172.076 23.5V6.628H175.34V23.5H172.076ZM174.476 23.5V20.62H183.812V23.5H174.476ZM174.476 16.276V13.492H182.972V16.276H174.476ZM174.476 9.508V6.628H183.692V9.508H174.476Z" fill="white"/>
<path d="M29 13C29 11.8954 28.1046 11 27 11C25.8954 11 25 11.8954 25 13L29 13ZM25 21.4L25 23.4L29 23.4L29 21.4L25 21.4ZM25 13L25 21.4L29 21.4L29 13L25 13Z" fill="white"/>
<path d="M71 13C71 11.8954 70.1046 11 69 11C67.8954 11 67 11.8954 67 13L71 13ZM67 21.4L67 23.4L71 23.4L71 21.4L67 21.4ZM67 13L67 21.4L71 21.4L71 13L67 13Z" fill="white"/>
<rect x="26.5" y="8.5" width="43" height="8" rx="4" fill="#0E2D5D" stroke="white" stroke-width="3"/>
</svg>
